<svg width="82" height="79" viewBox="0 0 82 79" fill="none" xmlns="http://www.w3.org/2000/svg">
<circle cx="-6" cy="-9" r="55" stroke="#F83C53" stroke-width="66"/>
<path d="M14.2004 40.0776C12.4808 40.847 12.7495 42.5938 11.7737 44.7141C10.3861 47.8076 11.5952 49.5282 13.1741 49.3384C14.7531 49.1487 15.2749 47.0648 16.8751 46.5155C18.41 45.8732 20.2924 46.9924 21.5196 46.0099C22.7796 45.0738 22.4072 42.9845 19.2038 41.7396C17.0636 40.9358 15.9718 39.4795 14.2004 40.0776Z" fill="#FFCCD2"/>
<path d="M9.07535 40.3917C10.61 41.4619 11.432 43.0958 10.9187 44.0356C10.3613 45.0057 8.67204 44.9218 7.13744 43.8516C5.60283 42.7814 4.78075 41.1475 5.29412 40.2077C5.85146 39.2376 7.54074 39.3215 9.07535 40.3917Z" fill="#FFCCD2"/>
<path d="M17.7757 36.979C17.3632 38.7228 17.9502 40.335 19.0422 40.6264C20.1341 40.9178 21.3824 39.7807 21.7949 38.0368C22.2074 36.293 21.6204 34.6808 20.5284 34.3894C19.3905 34.1296 18.1422 35.2668 17.7757 36.979Z" fill="#FFCCD2"/>
<path d="M11.722 35.594C12.8155 37.2465 12.8454 39.1207 11.8519 39.7315C10.8585 40.3422 9.16139 39.4696 8.06792 37.8171C6.97446 36.1647 6.94455 34.2905 7.93798 33.6797C8.93141 33.0689 10.6285 33.9416 11.722 35.594Z" fill="#FFCCD2"/>
<path d="M12.629 35.1702C13.0293 36.9596 14.274 38.1679 15.3708 37.946C16.512 37.6935 17.0995 36.0902 16.7308 34.3457C16.3304 32.5563 15.0857 31.348 13.989 31.5699C12.8607 31.7469 12.2287 33.3808 12.629 35.1702Z" fill="#FFCCD2"/>
<path d="M43.9918 38.6163C42.8565 39.1243 43.0338 40.2776 42.3896 41.6775C41.4734 43.72 42.2717 44.856 43.3142 44.7308C44.3567 44.6055 44.7013 43.2296 45.7578 42.8669C46.7712 42.4428 48.0141 43.1818 48.8244 42.5331C49.6563 41.915 49.4104 40.5355 47.2953 39.7136C45.8823 39.1829 45.1614 38.2214 43.9918 38.6163Z" fill="#FFCCD2"/>
<path d="M40.608 38.8235C41.6212 39.5301 42.164 40.6088 41.825 41.2294C41.4571 41.8699 40.3417 41.8145 39.3285 41.1079C38.3152 40.4013 37.7724 39.3225 38.1114 38.702C38.4794 38.0614 39.5947 38.1168 40.608 38.8235Z" fill="#FFCCD2"/>
<path d="M46.3523 36.5703C46.08 37.7217 46.4675 38.7862 47.1885 38.9785C47.9095 39.1709 48.7337 38.4201 49.006 37.2688C49.2783 36.1174 48.8908 35.0529 48.1698 34.8605C47.4185 34.689 46.5943 35.4398 46.3523 36.5703Z" fill="#FFCCD2"/>
<path d="M42.3554 35.656C43.0773 36.747 43.0971 37.9845 42.4412 38.3877C41.7852 38.791 40.6647 38.2148 39.9427 37.1238C39.2208 36.0328 39.201 34.7953 39.8569 34.392C40.5129 33.9888 41.6334 34.5649 42.3554 35.656Z" fill="#FFCCD2"/>
<path d="M42.9542 35.3763C43.2185 36.5578 44.0403 37.3556 44.7645 37.2091C45.518 37.0424 45.9059 35.9838 45.6624 34.832C45.3981 33.6505 44.5763 32.8527 43.8521 32.9992C43.1072 33.1161 42.6899 34.1949 42.9542 35.3763Z" fill="#FFCCD2"/>
<path d="M39.3202 15.4043C37.8358 16.0685 38.0677 17.5763 37.2255 19.4066C36.0276 22.077 37.0713 23.5622 38.4343 23.3984C39.7973 23.2346 40.2477 21.4358 41.6291 20.9616C42.954 20.4072 44.5789 21.3733 45.6383 20.5251C46.7259 19.7171 46.4045 17.9135 43.6392 16.8389C41.7918 16.1451 40.8493 14.888 39.3202 15.4043Z" fill="#FFCCD2"/>
<path d="M34.8962 15.6752C36.2209 16.599 36.9305 18.0094 36.4873 18.8207C36.0062 19.6581 34.548 19.5857 33.2233 18.6618C31.8986 17.738 31.189 16.3276 31.6321 15.5163C32.1132 14.6789 33.5715 14.7514 34.8962 15.6752Z" fill="#FFCCD2"/>
<path d="M42.4065 12.7292C42.0504 14.2345 42.5571 15.6262 43.4997 15.8777C44.4423 16.1293 45.5199 15.1477 45.8759 13.6424C46.232 12.137 45.7253 10.7453 44.7827 10.4938C43.8004 10.2696 42.7228 11.2512 42.4065 12.7292Z" fill="#FFCCD2"/>
<path d="M37.1807 11.5338C38.1246 12.9602 38.1504 14.5781 37.2928 15.1053C36.4353 15.6326 34.9703 14.8793 34.0264 13.4528C33.0825 12.0264 33.0567 10.4085 33.9142 9.88131C34.7718 9.35408 36.2368 10.1074 37.1807 11.5338Z" fill="#FFCCD2"/>
<path d="M37.9637 11.1681C38.3092 12.7127 39.3837 13.7558 40.3304 13.5642C41.3155 13.3463 41.8227 11.9623 41.5044 10.4564C41.1588 8.91175 40.0844 7.8687 39.1376 8.06024C38.1636 8.21303 37.6181 9.62343 37.9637 11.1681Z" fill="#FFCCD2"/>
</svg>
