<svg width="78" height="67" viewBox="0 0 78 67" fill="none" xmlns="http://www.w3.org/2000/svg">
<circle cx="90.5" cy="-23.5" r="90.5" fill="#F83C53"/>
<path d="M45.4603 34.6392C44.4527 33.91 43.5425 34.6403 42.0081 34.7823C39.7811 35.0101 39.1964 36.2694 39.8262 37.1096C40.4559 37.9498 41.8197 37.5603 42.6621 38.294C43.5361 38.9596 43.5175 40.4054 44.4845 40.7828C45.4357 41.1942 46.5075 40.2915 46.1617 38.0488C45.9148 36.5597 46.3871 35.4546 45.4603 34.6392Z" fill="#FFCCD2"/>
<path d="M43.5888 31.8125C43.4835 33.0433 42.8207 34.0527 42.1138 34.0695C41.3751 34.071 40.8654 33.0774 40.9707 31.8466C41.076 30.6158 41.7389 29.6064 42.4458 29.5896C43.1845 29.5881 43.6942 30.5817 43.5888 31.8125Z" fill="#FFCCD2"/>
<path d="M48.4124 35.6607C47.2791 36.0005 46.551 36.8684 46.7449 37.589C46.9387 38.3096 48.001 38.6479 49.1343 38.3081C50.2676 37.9683 50.9957 37.1004 50.8019 36.3798C50.5747 35.6434 49.5124 35.305 48.4124 35.6607Z" fill="#FFCCD2"/>
<path d="M47.2057 31.742C46.6219 32.9127 45.5601 33.5486 44.8829 33.1822C44.2057 32.8157 44.1444 31.5572 44.7283 30.3865C45.3121 29.2157 46.374 28.5799 47.0511 28.9463C47.7283 29.3127 47.7896 30.5712 47.2057 31.742Z" fill="#FFCCD2"/>
<path d="M47.7474 32.1208C46.8564 32.9404 46.5764 34.0511 47.0653 34.6049C47.5864 35.1741 48.6972 34.9808 49.5729 34.194C50.4639 33.3744 50.7439 32.2638 50.255 31.7099C49.7813 31.1232 48.6384 31.3012 47.7474 32.1208Z" fill="#FFCCD2"/>
<path d="M63.2266 18.9876C61.9093 18.0342 60.7194 18.989 58.7132 19.1747C55.8016 19.4725 55.0372 21.119 55.8606 22.2175C56.6839 23.316 58.467 22.8067 59.5683 23.7659C60.7109 24.6361 60.6867 26.5263 61.9509 27.0197C63.1945 27.5576 64.5957 26.3775 64.1437 23.4453C63.8209 21.4985 64.4383 20.0537 63.2266 18.9876Z" fill="#FFCCD2"/>
<path d="M60.7801 15.292C60.6424 16.9011 59.7758 18.2209 58.8516 18.2427C57.8858 18.2448 57.2194 16.9457 57.3571 15.3366C57.4948 13.7274 58.3615 12.4077 59.2856 12.3858C60.2514 12.3837 60.9178 13.6828 60.7801 15.292Z" fill="#FFCCD2"/>
<path d="M67.0864 20.3229C65.6047 20.7672 64.6528 21.9019 64.9063 22.844C65.1597 23.7861 66.5486 24.2285 68.0303 23.7842C69.512 23.3399 70.4639 22.2052 70.2104 21.2631C69.9134 20.3003 68.5246 19.8579 67.0864 20.3229Z" fill="#FFCCD2"/>
<path d="M65.5088 15.1996C64.7455 16.7303 63.3573 17.5616 62.4719 17.0825C61.5865 16.6035 61.5064 14.9581 62.2698 13.4275C63.0331 11.8968 64.4214 11.0655 65.3067 11.5445C66.1921 12.0236 66.2722 13.669 65.5088 15.1996Z" fill="#FFCCD2"/>
<path d="M66.217 15.6949C65.0521 16.7665 64.686 18.2186 65.3253 18.9427C66.0066 19.6869 67.4587 19.4341 68.6037 18.4055C69.7686 17.3339 70.1347 15.8819 69.4954 15.1577C68.8761 14.3906 67.3819 14.6233 66.217 15.6949Z" fill="#FFCCD2"/>
<path d="M31.299 14.5702C29.773 13.4658 28.3945 14.5718 26.0705 14.7869C22.6975 15.132 21.812 17.0393 22.7658 18.3119C23.7196 19.5844 25.7852 18.9944 27.061 20.1056C28.3847 21.1137 28.3566 23.3034 29.8212 23.875C31.2618 24.4981 32.8851 23.131 32.3614 19.7343C31.9875 17.4789 32.7027 15.8052 31.299 14.5702Z" fill="#FFCCD2"/>
<path d="M28.4646 10.2888C28.3051 12.1529 27.3011 13.6818 26.2305 13.7071C25.1117 13.7095 24.3398 12.2046 24.4993 10.3405C24.6588 8.47637 25.6627 6.94749 26.7334 6.92217C27.8522 6.91978 28.6241 8.42471 28.4646 10.2888Z" fill="#FFCCD2"/>
<path d="M35.7703 16.1171C34.0538 16.6318 32.9511 17.9463 33.2447 19.0376C33.5383 20.129 35.1473 20.6415 36.8637 20.1268C38.5802 19.6121 39.6829 18.2976 39.3893 17.2062C39.0452 16.0909 37.4363 15.5784 35.7703 16.1171Z" fill="#FFCCD2"/>
<path d="M33.9428 10.1821C33.0585 11.9553 31.4503 12.9183 30.4247 12.3634C29.399 11.8084 29.3062 9.90236 30.1905 8.12917C31.0748 6.35598 32.683 5.39297 33.7087 5.94791C34.7343 6.50286 34.8271 8.40894 33.9428 10.1821Z" fill="#FFCCD2"/>
<path d="M34.7634 10.7555C33.4139 11.9969 32.9898 13.679 33.7303 14.5179C34.5196 15.38 36.2019 15.0872 37.5283 13.8955C38.8777 12.6542 39.3018 10.9721 38.5613 10.1332C37.8438 9.24452 36.1129 9.51415 34.7634 10.7555Z" fill="#FFCCD2"/>
</svg>
