<svg width="18" height="20" viewBox="0 0 18 20" fill="none" xmlns="http://www.w3.org/2000/svg">
<path d="M17.1887 11.2857C17.1887 10.8715 16.8529 10.5357 16.4387 10.5357C16.0245 10.5357 15.6887 10.8715 15.6887 11.2857H17.1887ZM8.71933 4.32138H9.46933V2.82138H8.71933V4.32138ZM7.96293 0.469492C7.66994 0.176697 7.19506 0.176856 6.90227 0.469848C6.60947 0.76284 6.60963 1.23771 6.90263 1.53051L7.96293 0.469492ZM10.0059 3.57138L10.5361 4.10188C10.6768 3.96121 10.7559 3.77037 10.7559 3.57137C10.7559 3.37238 10.6768 3.18154 10.536 3.04088L10.0059 3.57138ZM6.90261 5.61243C6.60963 5.90524 6.60948 6.38011 6.90229 6.67309C7.19509 6.96607 7.66996 6.96622 7.96295 6.67342L6.90261 5.61243ZM15.6887 11.2857C15.6887 15.1306 12.5679 18.25 8.71933 18.25V19.75C13.3954 19.75 17.1887 15.9599 17.1887 11.2857H15.6887ZM8.71933 18.25C4.87073 18.25 1.75 15.1306 1.75 11.2857H0.25C0.25 15.9599 4.04322 19.75 8.71933 19.75V18.25ZM1.75 11.2857C1.75 7.44079 4.87073 4.32138 8.71933 4.32138V2.82138C4.04322 2.82138 0.25 6.61144 0.25 11.2857H1.75ZM6.90263 1.53051L9.47574 4.10189L10.536 3.04088L7.96293 0.469492L6.90263 1.53051ZM9.47572 3.04089L6.90261 5.61243L7.96295 6.67342L10.5361 4.10188L9.47572 3.04089Z" fill="#F83C53"/>
</svg>
