<svg width="49" height="49" viewBox="0 0 49 49" fill="none" xmlns="http://www.w3.org/2000/svg">
<path opacity="0.4" d="M24.5002 26.7684C30.8429 26.7684 35.9847 21.6902 35.9847 15.4258C35.9847 9.1615 30.8429 4.08325 24.5002 4.08325C18.1574 4.08325 13.0156 9.1615 13.0156 15.4258C13.0156 21.6902 18.1574 26.7684 24.5002 26.7684Z" fill="#4D5364"/>
<path d="M42.8551 38.1296V38.1296C42.8654 37.9682 42.8654 37.8063 42.8551 37.6448C42.8096 37.0482 42.6403 36.4656 42.3567 35.9295C41.2402 33.748 38.1103 32.7598 35.4986 32.2004C33.6353 31.8125 31.7422 31.5631 29.8368 31.4546L27.8432 31.3054H26.9461H25.8296H23.1582H22.0418H21.1447L19.151 31.4546C17.2457 31.5631 15.3525 31.8125 13.4892 32.2004C10.8776 32.6852 7.74759 33.692 6.63117 35.9295C6.34751 36.4656 6.17822 37.0482 6.13277 37.6448C6.12241 37.8063 6.12241 37.9682 6.13277 38.1296V38.1296C6.1232 38.2911 6.1232 38.4529 6.13277 38.6144C6.187 39.2059 6.36301 39.7821 6.65111 40.3111C7.76753 42.4926 10.8975 43.4808 13.5091 44.0402C15.3759 44.4099 17.2676 44.6591 19.171 44.786L21.1646 44.9165H21.6431H22.0617H26.966H27.3846H27.8631L29.8567 44.786C31.7601 44.6591 33.6518 44.4099 35.5186 44.0402C38.1302 43.5368 41.2602 42.5486 42.3766 40.3111C42.6513 39.7653 42.82 39.1782 42.875 38.5771C42.8775 38.4277 42.8709 38.2783 42.8551 38.1296Z" fill="#4D5364"/>
</svg>
