<svg width="63" height="63" viewBox="0 0 63 63" fill="none" xmlns="http://www.w3.org/2000/svg">
<g clip-path="url(#clip0_274_9135)">
<path d="M62.91 16.34C62.9627 15.3912 62.8683 14.4399 62.63 13.52C62.0204 11.3905 60.8447 9.4661 59.2282 7.9517C57.6117 6.43731 55.6148 5.38955 53.45 4.91998C52.231 4.65972 50.9864 4.53894 49.74 4.55998C48.83 4.55998 48.68 4.39998 48.67 3.47998C48.67 3.16998 48.67 2.85998 48.67 2.54998C48.6931 2.23319 48.6518 1.91501 48.5484 1.61465C48.4451 1.31429 48.282 1.03801 48.0689 0.80247C47.8558 0.566935 47.5971 0.377045 47.3086 0.244273C47.02 0.111501 46.7076 0.0385996 46.39 0.0299789C45.985 -0.0764678 45.5601 -0.082709 45.1521 0.0117905C44.7441 0.10629 44.3653 0.298698 44.0483 0.572383C43.7313 0.846068 43.4856 1.1928 43.3326 1.58265C43.1796 1.9725 43.1238 2.39374 43.17 2.80998C43.17 3.11998 43.17 3.42998 43.17 3.72998C43.17 4.33998 42.96 4.51998 42.34 4.55998H20.43C20.3375 4.5657 20.2447 4.55186 20.1579 4.51934C20.071 4.48683 19.992 4.43637 19.926 4.37127C19.8599 4.30617 19.8083 4.22788 19.7746 4.14151C19.7408 4.05513 19.7256 3.96261 19.73 3.86998C19.73 3.51998 19.73 3.16998 19.73 2.86998C19.73 0.949975 18.73 0.00997772 16.82 0.0599777C16.4678 0.0269405 16.1125 0.0725453 15.78 0.193477C15.4475 0.314408 15.146 0.507649 14.8972 0.759273C14.6485 1.0109 14.4587 1.31461 14.3416 1.64849C14.2245 1.98238 14.183 2.3381 14.22 2.68998V3.30998C14.22 4.51998 14.13 4.61998 12.94 4.60998C12.1233 4.59581 11.3069 4.65269 10.5 4.77998C8.35689 5.06265 6.32524 5.90202 4.60753 7.21443C2.88982 8.52684 1.54602 10.2665 0.710037 12.26C0.350947 13.2976 0.122513 14.3759 0.0300293 15.47V52.47C0.0741099 52.5383 0.0951519 52.6189 0.0900421 52.7C0.137802 53.5349 0.271843 54.3627 0.490036 55.17C1.24164 57.2166 2.52583 59.0255 4.21004 60.41C5.6618 61.7516 7.49127 62.614 9.45004 62.88C9.87309 62.8997 10.2942 62.9499 10.71 63.03H11.82C12.0582 62.9116 12.3271 62.8696 12.59 62.91H50.2C50.4662 62.8689 50.7385 62.9108 50.98 63.03H52.08C52.1483 62.9859 52.2289 62.9649 52.31 62.97C53.834 62.9855 55.3337 62.5881 56.65 61.82C60.53 59.49 62.95 56.26 62.95 51.55C62.93 39.81 62.9167 28.0733 62.91 16.34ZM5.58003 14.02C6.14027 12.7932 7.03516 11.7492 8.16193 11.0081C9.2887 10.2669 10.6017 9.8586 11.95 9.82998C12.65 9.82998 13.34 9.82998 14.04 9.82998C14.39 9.82998 14.49 9.93999 14.49 10.29C14.49 11.68 14.49 13.07 14.49 14.46C14.4654 14.7922 14.5092 15.126 14.619 15.4406C14.7288 15.7551 14.902 16.0438 15.1281 16.2885C15.3541 16.5333 15.628 16.729 15.9328 16.8634C16.2377 16.9978 16.5669 17.0682 16.9 17.07C17.239 17.0763 17.5757 17.0121 17.8886 16.8815C18.2015 16.751 18.4839 16.5569 18.718 16.3116C18.952 16.0663 19.1326 15.775 19.2483 15.4563C19.364 15.1376 19.4122 14.7983 19.39 14.46C19.39 13.09 19.39 11.72 19.39 10.35C19.39 9.94999 19.5 9.82998 19.91 9.82998H42.99C43.42 9.82998 43.49 9.98998 43.48 10.37C43.48 11.72 43.48 13.07 43.48 14.42C43.4509 14.7576 43.4924 15.0976 43.6018 15.4183C43.7113 15.7391 43.8864 16.0335 44.116 16.2828C44.3455 16.5321 44.6245 16.7308 44.9351 16.8664C45.2457 17.0019 45.5811 17.0712 45.92 17.07C46.2592 17.0753 46.5958 17.0096 46.908 16.877C47.2202 16.7445 47.5012 16.548 47.733 16.3002C47.9647 16.0525 48.142 15.759 48.2534 15.4386C48.3649 15.1182 48.408 14.778 48.38 14.44C48.38 13.09 48.38 11.74 48.38 10.44C48.38 10.04 48.45 9.85998 48.91 9.86998C50.3385 9.78449 51.7713 9.93657 53.15 10.32C54.5463 10.8205 55.7559 11.7366 56.6158 12.9452C57.4757 14.1538 57.9449 15.5968 57.96 17.08C57.96 17.73 57.96 18.38 57.96 19.08C57.96 19.4 57.87 19.53 57.55 19.5H5.62004C5.08004 19.5 4.89004 19.39 4.90004 18.81C4.75297 17.1822 4.98574 15.5425 5.58003 14.02V14.02ZM57.95 50.52C57.9847 51.5104 57.8157 52.4974 57.4535 53.4198C57.0913 54.3422 56.5435 55.1805 55.8442 55.8826C55.1449 56.5848 54.3088 57.1359 53.3878 57.5018C52.4669 57.8677 51.4806 58.0407 50.49 58.01C37.79 58.01 25.0867 58.01 12.38 58.01C11.3892 58.0435 10.402 57.8729 9.47986 57.5087C8.55773 57.1445 7.72034 56.5946 7.01976 55.8931C6.31918 55.1916 5.77036 54.3534 5.40742 53.4308C5.04449 52.5082 4.87519 51.5208 4.91003 50.53C4.91003 42.0233 4.91003 33.5133 4.91003 25C4.91003 24.38 5.09003 24.28 5.66003 24.28C14.2534 24.28 22.8434 24.28 31.43 24.28C40.0167 24.28 48.63 24.28 57.27 24.28C57.85 24.28 57.97 24.45 57.97 24.99C57.9434 33.5033 57.95 42.0133 57.99 50.52H57.95Z" fill="#F73C53"/>
<path d="M16.9901 45.55C17.8101 45.55 18.6301 45.55 19.4501 45.55C20.1008 45.5473 20.726 45.8026 21.1889 46.2599C21.6519 46.7172 21.9148 47.3393 21.92 47.99C21.92 48.6424 21.6609 49.2681 21.1995 49.7295C20.7382 50.1908 20.1125 50.45 19.4601 50.45C17.8501 50.45 16.2301 50.45 14.6201 50.45C13.9684 50.4395 13.3467 50.1739 12.8887 49.7102C12.4306 49.2466 12.1726 48.6218 12.17 47.97C12.1832 47.3184 12.4533 46.6984 12.9216 46.2451C13.3899 45.7918 14.0184 45.5419 14.67 45.55C15.48 45.54 16.2601 45.55 16.9901 45.55Z" fill="#F73C53"/>
<path d="M46.07 45.56C46.88 45.56 47.7 45.56 48.52 45.56C49.1605 45.5571 49.777 45.8041 50.2382 46.2485C50.6995 46.693 50.9692 47.2998 50.99 47.94C50.9955 48.5813 50.7493 49.1992 50.3044 49.661C49.8594 50.1228 49.2511 50.3917 48.61 50.41C46.93 50.41 45.26 50.41 43.61 50.41C42.9795 50.3841 42.3839 50.1139 41.9491 49.6567C41.5142 49.1994 41.2743 48.591 41.28 47.96C41.28 47.3181 41.5329 46.7019 41.984 46.2452C42.4351 45.7885 43.0481 45.5279 43.69 45.52C44.43 45.54 45.25 45.56 46.07 45.56Z" fill="#F73C53"/>
<path d="M46.06 35.94C45.26 35.94 44.46 35.94 43.67 35.94C43.0175 35.94 42.3918 35.6808 41.9305 35.2195C41.4692 34.7581 41.21 34.1324 41.21 33.48C41.2086 33.1575 41.2715 32.8379 41.3949 32.54C41.5183 32.242 41.6997 31.9716 41.9287 31.7445C42.1577 31.5174 42.4296 31.3382 42.7285 31.2172C43.0275 31.0962 43.3475 31.036 43.67 31.04C45.29 31.04 46.9 31.04 48.51 31.04C49.1529 31.0426 49.769 31.2977 50.2254 31.7504C50.6819 32.2031 50.9421 32.8171 50.95 33.46C50.9501 34.1108 50.6943 34.7356 50.2378 35.1996C49.7813 35.6636 49.1608 35.9295 48.51 35.94C47.69 36 46.88 35.94 46.06 35.94Z" fill="#F73C53"/>
<path d="M17.11 35.94C16.31 35.94 15.51 35.94 14.72 35.94C14.3921 35.9426 14.067 35.8805 13.7632 35.7572C13.4595 35.6338 13.1831 35.4517 12.9499 35.2213C12.7167 34.9909 12.5312 34.7167 12.4043 34.4144C12.2773 34.1122 12.2113 33.7878 12.21 33.46C12.2231 32.8084 12.4933 32.1884 12.9615 31.7351C13.4298 31.2818 14.0583 31.0319 14.71 31.04C16.3 31.04 17.89 31.04 19.49 31.04C19.8125 31.0373 20.1325 31.0984 20.4314 31.2197C20.7303 31.3411 21.0023 31.5202 21.2318 31.7469C21.4613 31.9736 21.6437 32.2434 21.7687 32.5408C21.8937 32.8382 21.9587 33.1574 21.96 33.48C21.96 33.803 21.8963 34.1229 21.7727 34.4214C21.6491 34.7198 21.4679 34.991 21.2394 35.2195C21.011 35.4479 20.7398 35.6291 20.4414 35.7527C20.1429 35.8763 19.823 35.94 19.5 35.94C18.7 36 17.9 35.94 17.11 35.94Z" fill="#F73C53"/>
<path d="M31.59 31.07C32.39 31.07 33.19 31.07 33.98 31.07C34.303 31.0687 34.623 31.1315 34.9215 31.2547C35.22 31.378 35.4911 31.5593 35.719 31.7881C35.9469 32.017 36.1271 32.2888 36.2491 32.5878C36.3712 32.8868 36.4327 33.207 36.43 33.53C36.4248 34.1727 36.165 34.7872 35.7077 35.2389C35.2504 35.6906 34.6328 35.9427 33.99 35.94C32.36 35.94 30.72 35.94 29.09 35.94C28.448 35.9322 27.8344 35.6737 27.3804 35.2197C26.9263 34.7656 26.6678 34.1521 26.66 33.51C26.66 32.8593 26.9178 32.2351 27.377 31.774C27.8362 31.313 28.4593 31.0526 29.11 31.05C29.99 31.06 30.78 31.07 31.59 31.07Z" fill="#F73C53"/>
<path d="M31.58 45.55C32.37 45.55 33.17 45.55 33.97 45.55C34.2925 45.546 34.6125 45.6063 34.9115 45.7272C35.2104 45.8482 35.4823 46.0275 35.7113 46.2546C35.9403 46.4817 36.1217 46.7521 36.2451 47.05C36.3685 47.348 36.4314 47.6675 36.43 47.99C36.4313 48.3126 36.3689 48.6323 36.2464 48.9307C36.1239 49.2291 35.9436 49.5003 35.716 49.7289C35.4884 49.9575 35.2178 50.1388 34.9199 50.2626C34.622 50.3863 34.3026 50.45 33.98 50.45C32.38 50.45 30.79 50.45 29.2 50.45C28.8697 50.4527 28.5421 50.3896 28.2363 50.2644C27.9306 50.1392 27.6529 49.9544 27.4193 49.7208C27.1856 49.4872 27.0009 49.2094 26.8757 48.9037C26.7505 48.598 26.6874 48.2704 26.69 47.94C26.7032 47.2884 26.9733 46.6684 27.4416 46.2151C27.9099 45.7618 28.5383 45.512 29.19 45.52C29.99 45.54 30.78 45.55 31.58 45.55Z" fill="#F73C53"/>
</g>
<defs>
<clipPath id="clip0_274_9135">
<rect width="62.92" height="62.93" fill="white"/>
</clipPath>
</defs>
</svg>
