<svg width="53" height="53" viewBox="0 0 53 53" fill="none" xmlns="http://www.w3.org/2000/svg">
<path fill-rule="evenodd" clip-rule="evenodd" d="M48.5754 18.4951H39.2239C34.872 18.5027 31.3465 21.9401 31.3387 26.1832C31.3328 30.436 34.8622 33.8886 39.2239 33.8944H48.5833V34.57C48.5833 41.9883 44.0861 46.375 36.4757 46.375H16.5261C8.91377 46.375 4.41663 41.9883 4.41663 34.57V18.4128C4.41663 10.9945 8.91377 6.625 16.5261 6.625H36.4679C44.0783 6.625 48.5754 10.9945 48.5754 18.4128V18.4951ZM14.883 18.4781H27.338H27.3459H27.3616C28.294 18.4742 29.0477 17.7336 29.0438 16.8225C29.0399 15.9134 28.2783 15.1785 27.3459 15.1823H14.883C13.9565 15.1861 13.2047 15.9192 13.2007 16.8244C13.1968 17.7336 13.9506 18.4742 14.883 18.4781Z" fill="#4D5364"/>
<path opacity="0.4" d="M35.4162 27.1549C35.878 29.2555 37.7197 30.7333 39.8223 30.6949H46.9992C47.874 30.6949 48.5836 29.9704 48.5836 29.0748V23.4843C48.5817 22.5907 47.874 21.8642 46.9992 21.8623H39.6533C37.2616 21.87 35.3299 23.8552 35.3336 26.3017C35.3336 26.588 35.3618 26.8744 35.4162 27.1549" fill="#4D5364"/>
<path d="M39.7503 28.4872C40.9699 28.4872 41.9587 27.4985 41.9587 26.2789C41.9587 25.0593 40.9699 24.0706 39.7503 24.0706C38.5307 24.0706 37.542 25.0593 37.542 26.2789C37.542 27.4985 38.5307 28.4872 39.7503 28.4872Z" fill="#4D5364"/>
</svg>
