<svg width="50" height="46" viewBox="0 0 50 46" fill="none" xmlns="http://www.w3.org/2000/svg">
<path d="M24.5519 1.90509C24.7355 1.53421 25.2645 1.53422 25.4481 1.90509L32.1491 15.4403C32.2234 15.5904 32.368 15.6934 32.5342 15.7145L47.9289 17.6704C48.3515 17.7241 48.5177 18.2478 48.2034 18.5353L36.9662 28.8168C36.8381 28.934 36.78 29.1094 36.8127 29.28L39.6373 43.9822C39.7163 44.3933 39.2854 44.7136 38.9145 44.5196L25.2318 37.3619C25.0866 37.286 24.9134 37.286 24.7682 37.3619L11.0855 44.5196C10.7146 44.7136 10.2837 44.3933 10.3627 43.9822L13.1873 29.28C13.22 29.1094 13.1619 28.934 13.0338 28.8168L1.79657 18.5353C1.48231 18.2478 1.64852 17.7241 2.07107 17.6704L17.4659 15.7145C17.632 15.6934 17.7766 15.5904 17.8509 15.4403L24.5519 1.90509Z" fill="#FEDBDD" stroke="#F83C53" stroke-width="1.5" stroke-linecap="round" stroke-linejoin="round"/>
</svg>
