<svg width="7" height="7" viewBox="0 0 7 7" fill="none" xmlns="http://www.w3.org/2000/svg">
<path d="M6.7961 0C6.83096 0.0152455 6.8649 0.0325251 6.89773 0.0517497C6.9296 0.0734319 6.95557 0.102679 6.97331 0.136862C6.99105 0.171045 7 0.209094 6.99937 0.247588C7.01665 1.08776 6.67921 1.76964 6.05923 2.31758L4.92802 3.32214C4.81728 3.41645 4.72906 3.53427 4.6698 3.667C4.61054 3.79972 4.58174 3.94399 4.58551 4.08926C4.58551 4.59661 4.58551 5.10396 4.58551 5.61131C4.58846 5.66937 4.57555 5.72713 4.54816 5.77843C4.52077 5.82973 4.47993 5.87262 4.43 5.90253C3.90963 6.24618 3.39094 6.59118 2.87395 6.93753C2.83166 6.97174 2.78032 6.99293 2.72618 6.99852C2.67204 7.0041 2.61744 6.99384 2.56904 6.96899C2.52164 6.94205 2.48295 6.90213 2.45756 6.85394C2.43216 6.80575 2.42112 6.75131 2.42574 6.69705C2.42574 5.83252 2.42574 4.96799 2.42574 4.10346C2.42963 3.95375 2.39978 3.80508 2.33838 3.66844C2.27698 3.53179 2.18561 3.41067 2.07103 3.31402C1.65432 2.94467 1.22948 2.58242 0.824964 2.19785C0.569685 1.95948 0.365128 1.6722 0.223509 1.35316C0.0818894 1.03412 0.00611227 0.689863 0.000695537 0.340941C-0.006419 0.145103 0.0393157 0.0771175 0.218196 0H6.7961ZM0.561727 0.550984C0.623302 1.0376 0.855128 1.48683 1.21626 1.81936C1.61671 2.18669 2.02935 2.54285 2.4359 2.90307C2.60991 3.05212 2.74845 3.23803 2.84146 3.44725C2.93446 3.65648 2.97959 3.88377 2.97356 4.1126C2.97356 4.78737 2.97356 5.46215 2.97356 6.142V6.22115L3.01319 6.19883C3.34351 5.97864 3.67484 5.75946 4.00313 5.53724C4.015 5.52681 4.02457 5.51403 4.03122 5.4997C4.03787 5.48537 4.04146 5.46982 4.04175 5.45403C4.04175 5.00486 4.04175 4.55568 4.04175 4.10651C4.03603 3.87994 4.08105 3.65496 4.17354 3.44798C4.26603 3.24101 4.40366 3.05726 4.57636 2.91017L5.53987 2.05579C5.73362 1.89812 5.90887 1.71907 6.06228 1.52206C6.26935 1.23545 6.40236 0.902239 6.44952 0.551999L0.561727 0.550984Z" fill="#FC7844"/>
</svg>
