<svg width="15" height="18" viewBox="0 0 15 18" fill="none" xmlns="http://www.w3.org/2000/svg">
<path fill-rule="evenodd" clip-rule="evenodd" d="M4.1761 1.81449C6.26992 0.597886 8.84357 0.61915 10.9177 1.87019C12.9715 3.14671 14.2198 5.42492 14.2081 7.87563C14.1603 10.3103 12.8219 12.5988 11.1488 14.368C10.1831 15.3937 9.10288 16.3007 7.9301 17.0705C7.80932 17.1403 7.67701 17.187 7.53972 17.2084C7.40758 17.2028 7.27889 17.1637 7.16526 17.0948C5.37478 15.9382 3.80399 14.4619 2.52844 12.7368C1.46111 11.2968 0.854719 9.55709 0.791627 7.7539C0.790241 5.29848 2.08228 3.03109 4.1761 1.81449ZM5.38607 8.76999C5.73828 9.6383 6.56963 10.2047 7.49195 10.2047C8.09618 10.209 8.67701 9.967 9.10502 9.53253C9.53303 9.09807 9.77267 8.50727 9.77052 7.89178C9.77375 6.95228 9.22064 6.10346 8.36945 5.74165C7.51827 5.37984 6.53691 5.57641 5.88359 6.23958C5.23027 6.90274 5.03386 7.90169 5.38607 8.76999Z" fill="#4D5364"/>
</svg>
