<svg width="136" height="136" viewBox="0 0 136 136" fill="none" xmlns="http://www.w3.org/2000/svg">
<path fill-rule="evenodd" clip-rule="evenodd" d="M67.9994 34C56.2584 34 46.7384 43.5156 46.7384 55.258C46.7384 66.9998 56.2577 76.5191 67.9994 76.5191C79.7411 76.5191 89.2604 66.9998 89.2604 55.258V37.3511C89.2604 35.5003 87.7601 34 85.9093 34H67.9994ZM55.2351 80.258C44.6888 80.258 35.9031 88.3324 35.012 98.8389C34.9327 99.7735 35.2488 100.699 35.8834 101.389C36.518 102.08 37.4131 102.473 38.3511 102.473H97.6489C98.5869 102.473 99.482 102.08 100.117 101.389C100.751 100.699 101.067 99.7735 100.988 98.8389C100.097 88.3321 91.3078 80.258 80.765 80.258H55.2351ZM66.4763 59.0911C65.1676 57.7824 63.0458 57.7824 61.7371 59.0911C60.4284 60.3998 60.4284 62.5216 61.7371 63.8303C65.3889 67.4821 71.3097 67.4821 74.9615 63.8303C76.2702 62.5216 76.2702 60.3998 74.9615 59.0911C73.6528 57.7824 71.531 57.7824 70.2223 59.0911C69.1879 60.1256 67.5107 60.1256 66.4763 59.0911Z" fill="#D3D1D8"/>
<circle cx="68" cy="68" r="67" stroke="#D3D1D8" stroke-width="2"/>
</svg>
