<svg width="51" height="55" viewBox="0 0 51 55" fill="none" xmlns="http://www.w3.org/2000/svg">
<path d="M47.8073 22.9603C47.5602 20.7597 46.5404 18.7178 44.9297 17.1982C43.3189 15.6785 41.2215 14.7796 39.0102 14.661V14.0142C39.0124 12.1735 38.6504 10.3509 37.9457 8.65046C37.2411 6.95005 36.2074 5.40552 34.9039 4.10595C33.6033 2.80243 32.0578 1.76879 30.3566 1.06416C28.6553 0.359535 26.8318 -0.002142 24.9904 9.54311e-06C21.2733 0.00136987 17.7089 1.47851 15.0806 4.10689C12.4522 6.73527 10.975 10.2999 10.9737 14.017V14.6711C8.79174 14.8261 6.73268 15.7409 5.15508 17.2561C3.57748 18.7714 2.58108 20.7915 2.33821 22.9653L0 44.2654C0.0115499 47.1213 1.15596 49.8559 3.18214 51.8686C5.20832 53.8813 7.95107 55.0075 10.807 55H39.3435C42.1994 55.0075 44.9416 53.8813 46.9677 51.8686C48.9939 49.8559 50.1383 47.1213 50.1499 44.2654L47.8073 22.9603ZM15.09 14.0398C15.0896 12.7398 15.3451 11.4524 15.8424 10.2512C16.3397 9.05006 17.0691 7.95874 17.9883 7.03935C18.9074 6.11996 19.9982 5.39045 21.1992 4.89287C22.4003 4.39529 23.6878 4.13947 24.9879 4.13947C26.2882 4.13822 27.5757 4.39367 28.7771 4.8913C29.9785 5.38893 31.0701 6.11865 31.9887 7.03904C32.9095 7.95741 33.6396 9.04861 34.1377 10.25C34.6358 11.4514 34.8917 12.7393 34.8908 14.0398V14.6404H15.09V14.0398ZM17.0428 28.6009C16.7162 28.6013 16.3924 28.5372 16.0905 28.4124C15.7887 28.2875 15.5145 28.1042 15.2835 27.8732C15.0526 27.6423 14.8696 27.3681 14.7447 27.0663C14.6199 26.7644 14.5558 26.4409 14.5561 26.1143C14.5558 25.7876 14.6199 25.4641 14.7447 25.1623C14.8696 24.8604 15.0526 24.586 15.2835 24.355C15.5145 24.124 15.7887 23.941 16.0905 23.8162C16.3924 23.6913 16.7162 23.6272 17.0428 23.6276C17.37 23.6269 17.694 23.6906 17.9964 23.8152C18.2989 23.9399 18.5736 24.1228 18.8053 24.3537C19.0369 24.5847 19.221 24.859 19.3466 25.161C19.4722 25.4631 19.5367 25.7872 19.5371 26.1143C19.5367 26.4414 19.4722 26.7652 19.3466 27.0672C19.221 27.3693 19.0369 27.6435 18.8053 27.8745C18.5736 28.1054 18.2989 28.2884 17.9964 28.413C17.694 28.5376 17.37 28.6016 17.0428 28.6009V28.6009ZM33.1127 28.6009C32.7856 28.6016 32.4615 28.5376 32.1591 28.413C31.8567 28.2884 31.5819 28.1054 31.3503 27.8745C31.1186 27.6435 30.9345 27.3693 30.8089 27.0672C30.6834 26.7652 30.6188 26.4414 30.6185 26.1143C30.6188 25.7872 30.6834 25.4631 30.8089 25.161C30.9345 24.859 31.1186 24.5847 31.3503 24.3537C31.5819 24.1228 31.8567 23.9399 32.1591 23.8152C32.4615 23.6906 32.7856 23.6269 33.1127 23.6276C33.4393 23.6272 33.7625 23.6913 34.0644 23.8162C34.3662 23.941 34.641 24.124 34.872 24.355C35.103 24.586 35.2859 24.8604 35.4108 25.1623C35.5356 25.4641 35.5997 25.7876 35.5994 26.1143C35.5997 26.4409 35.5356 26.7644 35.4108 27.0663C35.2859 27.3681 35.103 27.6423 34.872 27.8732C34.641 28.1042 34.3662 28.2875 34.0644 28.4124C33.7625 28.5372 33.4393 28.6013 33.1127 28.6009V28.6009Z" fill="#4D5364"/>
</svg>
