<svg width="64" height="64" viewBox="0 0 64 64" fill="none" xmlns="http://www.w3.org/2000/svg">
<g clip-path="url(#clip0_274_9126)">
<path d="M63.16 38.47C63.2355 36.4305 62.7353 34.411 61.7167 32.6425C60.698 30.874 59.2021 29.428 57.4 28.47C57.3352 28.4461 57.2761 28.409 57.2263 28.361C57.1766 28.313 57.1373 28.2553 57.111 28.1914C57.0847 28.1275 57.0719 28.0588 57.0735 27.9898C57.075 27.9207 57.0909 27.8527 57.12 27.79C57.3315 26.9638 57.4291 26.1126 57.41 25.26C57.41 21.74 57.41 18.26 57.41 14.71C57.4152 14.2626 57.3952 13.8152 57.35 13.37C56.9252 10.7025 55.4665 8.30973 53.29 6.71003C50.443 4.48372 47.1685 2.86688 43.67 1.96003C38.1396 0.430215 32.4024 -0.21776 26.67 0.0400153C22.0103 0.134273 17.3862 0.874679 12.93 2.24003C9.53706 3.1988 6.3872 4.86918 3.69003 7.14002C2.49815 8.11556 1.54773 9.35322 0.912868 10.7565C0.278008 12.1598 -0.0241295 13.6908 0.030025 15.23C0.110025 18.35 0.030025 21.46 0.030025 24.58C-0.043477 26.6285 0.456872 28.6568 1.47462 30.4361C2.49237 32.2154 3.98703 33.6749 5.79003 34.65C6.06003 34.8 6.18003 34.93 6.07003 35.27C5.84066 36.0895 5.73946 36.9396 5.77003 37.79C5.77003 39.54 5.77003 41.29 5.77003 43.04C5.77003 44.79 5.77003 46.44 5.77003 48.15C5.73086 49.4746 5.97157 50.7925 6.47646 52.0176C6.98134 53.2428 7.73904 54.3476 8.70003 55.26C10.808 57.3112 13.3219 58.8986 16.08 59.92C20.446 61.6248 25.0516 62.637 29.73 62.92C36.6619 63.5445 43.6493 62.8454 50.32 60.86C53.6693 59.9128 56.7783 58.2629 59.44 56.02C60.6498 55.0454 61.6158 53.8023 62.2615 52.3894C62.9072 50.9765 63.2148 49.4325 63.16 47.88C63.09 44.74 63.16 41.6 63.16 38.47ZM7.45003 11.47C9.54077 9.73425 11.9787 8.46589 14.6 7.75004C19.3021 6.3274 24.1985 5.6525 29.11 5.75004C34.4232 5.69863 39.7017 6.60998 44.69 8.44001C46.5426 9.11819 48.2721 10.0944 49.81 11.33C52.25 13.38 52.26 15.33 49.81 17.4C47.3726 19.2787 44.564 20.6183 41.57 21.33C36.3867 22.7107 31.0119 23.231 25.66 22.87C21.3616 22.6963 17.1154 21.8633 13.07 20.4C11.0092 19.7007 9.09908 18.6184 7.44003 17.21C5.24003 15.18 5.23003 13.47 7.45003 11.48V11.47ZM6.98003 28.21C6.56836 27.8311 6.2462 27.3653 6.03691 26.8464C5.82763 26.3275 5.73646 25.7685 5.77003 25.21C5.80504 24.694 5.80504 24.1761 5.77003 23.66C5.77003 23.13 5.93003 23.18 6.29003 23.38C10.5076 25.7097 15.0889 27.3089 19.84 28.11C21.6229 28.4359 23.4283 28.6232 25.24 28.67C28.8432 28.8352 32.4537 28.7249 36.04 28.34C41.2185 27.6599 46.23 26.0436 50.83 23.57L51.64 23.16C51.64 24.16 51.64 25.16 51.64 26.08C51.5253 26.9103 51.1131 27.6707 50.48 28.22C48.8734 29.7566 46.9574 30.9328 44.86 31.67C40.9477 33.1689 36.824 34.0429 32.64 34.26C27.5112 34.6513 22.3527 34.2636 17.34 33.11C14.5311 32.5001 11.8328 31.4612 9.34003 30.03C8.47633 29.5344 7.68266 28.9257 6.98003 28.22V28.21ZM57.38 48.97C57.2825 49.7162 56.9291 50.4054 56.38 50.92C55.124 52.2369 53.6134 53.2848 51.94 54C48.4876 55.5476 44.8122 56.5398 41.05 56.94C37.0254 57.4532 32.9547 57.4968 28.92 57.07C24.1771 56.7146 19.558 55.3871 15.35 53.17C14.365 52.6406 13.465 51.9665 12.68 51.17C12.2765 50.7964 11.9605 50.3382 11.7548 49.8282C11.5491 49.3182 11.4587 48.769 11.49 48.22C11.49 47.55 11.49 46.88 11.49 46.22C11.8 46.17 11.98 46.37 12.19 46.48C17.9385 49.634 24.347 51.3946 30.9 51.62C34.9935 51.8611 39.1008 51.6902 43.16 51.11C47.9561 50.3112 52.5838 48.7122 56.85 46.38C56.98 46.3 57.12 46.24 57.37 46.12C57.4 47.11 57.44 48.05 57.38 48.98V48.97ZM56.78 38.97C55.7021 40.3542 54.3012 41.4529 52.7 42.17C49.2767 43.8457 45.5949 44.9309 41.81 45.38C38.2801 45.8813 34.708 46.0187 31.15 45.79C25.87 45.44 20.71 44.54 15.96 42.06C14.5337 41.3869 13.2762 40.4028 12.28 39.18C11.8514 38.7022 11.6006 38.0912 11.57 37.45C13.6001 38.1208 15.6668 38.675 17.76 39.11C22.3662 40.0288 27.0719 40.3481 31.76 40.06C35.6138 39.9009 39.4377 39.3105 43.16 38.3C46.9513 37.3597 50.4996 35.6247 53.57 33.21C53.73 33.07 53.86 32.98 54.09 33.13C55.1598 33.7479 56.0976 34.5702 56.85 35.55C57.2424 36.0373 57.4505 36.6473 57.4377 37.2728C57.4249 37.8983 57.192 38.4992 56.78 38.97Z" fill="#F73C53"/>
</g>
<defs>
<clipPath id="clip0_274_9126">
<rect width="63.18" height="63.09" fill="white"/>
</clipPath>
</defs>
</svg>
