<svg width="48" height="48" viewBox="0 0 48 48" fill="none" xmlns="http://www.w3.org/2000/svg">
<path fill-rule="evenodd" clip-rule="evenodd" d="M2.18712 6.74406C2.95295 5.47601 7.17248 0.863851 10.1836 1.00309C11.0837 1.07768 11.8794 1.6222 12.5258 2.25373C14.0102 3.70326 18.2596 9.18562 18.5008 10.3393C19.0876 13.1687 15.716 14.7998 16.7479 17.6516C19.3785 24.0886 23.9114 28.6213 30.3512 31.2494C33.2008 32.2812 34.8318 28.9097 37.6616 29.499C38.8128 29.7401 44.2979 33.9893 45.7474 35.4736C46.3766 36.1176 46.9235 36.9156 46.9981 37.8158C47.11 40.9859 42.2117 45.2648 41.2568 45.8118C39.0043 47.423 36.0651 47.3956 32.4822 45.7297C22.4842 41.5701 6.50611 25.8938 2.26917 15.5183C0.648005 11.9554 0.536104 8.99668 2.18712 6.74406Z" fill="#FDD3D9" stroke="#F83C53" stroke-width="1.2" stroke-linecap="round" stroke-linejoin="round"/>
</svg>
