<svg width="14" height="15" viewBox="0 0 14 15" fill="none" xmlns="http://www.w3.org/2000/svg">
<path d="M12.6449 6.07299C12.5796 5.49092 12.3099 4.95085 11.8838 4.5489C11.4578 4.14696 10.903 3.9092 10.3181 3.87784V3.70674C10.3187 3.21989 10.223 2.7378 10.0366 2.28804C9.8502 1.83828 9.5768 1.42976 9.23203 1.08602C8.88802 0.741242 8.47924 0.467845 8.02927 0.281471C7.57929 0.0950969 7.09696 -0.000566558 6.60991 2.52415e-06C5.62674 0.000362329 4.68399 0.391066 3.98878 1.08627C3.29358 1.78147 2.90287 2.72431 2.90251 3.70748V3.88049C2.3254 3.9215 1.78078 4.16345 1.36351 4.56423C0.946237 4.96501 0.682692 5.49933 0.618452 6.07432L0 11.7082C0.00305493 12.4635 0.30575 13.1868 0.841671 13.7192C1.37759 14.2516 2.10304 14.5494 2.85843 14.5475H10.4063C11.1617 14.5494 11.887 14.2516 12.4229 13.7192C12.9588 13.1868 13.2615 12.4635 13.2646 11.7082L12.6449 6.07299ZM3.99127 3.71353C3.99118 3.36967 4.05876 3.02916 4.19029 2.71145C4.32182 2.39373 4.51475 2.10508 4.75787 1.8619C5.00098 1.61873 5.28948 1.42577 5.60716 1.29416C5.92484 1.16255 6.26539 1.09489 6.60925 1.09489C6.95319 1.09456 7.29374 1.16212 7.6115 1.29375C7.92926 1.42537 8.21799 1.61838 8.46096 1.86182C8.70452 2.10473 8.89762 2.39335 9.02936 2.71111C9.1611 3.02888 9.22879 3.36954 9.22855 3.71353V3.87237H3.99127V3.71353ZM4.5078 7.56493C4.4214 7.56502 4.33575 7.54807 4.25592 7.51505C4.17608 7.48203 4.10357 7.43355 4.04247 7.37245C3.98138 7.31136 3.93298 7.23885 3.89996 7.15901C3.86693 7.07917 3.84999 6.99361 3.85008 6.90721C3.84999 6.82081 3.86693 6.73524 3.89996 6.6554C3.93298 6.57556 3.98138 6.50297 4.04247 6.44188C4.10357 6.38078 4.17608 6.33238 4.25592 6.29936C4.33575 6.26634 4.4214 6.24939 4.5078 6.24948C4.59432 6.2493 4.68003 6.26615 4.76002 6.29911C4.84002 6.33208 4.91269 6.38046 4.97396 6.44154C5.03524 6.50263 5.08393 6.57518 5.11714 6.65507C5.15035 6.73496 5.16743 6.82069 5.16752 6.90721C5.16743 6.99373 5.15035 7.07937 5.11714 7.15926C5.08393 7.23915 5.03524 7.3117 4.97396 7.37279C4.91269 7.43387 4.84002 7.48225 4.76002 7.51522C4.68003 7.54818 4.59432 7.56511 4.5078 7.56493V7.56493ZM8.75825 7.56493C8.67173 7.56511 8.58602 7.54818 8.50603 7.51522C8.42604 7.48225 8.35336 7.43387 8.29209 7.37279C8.23082 7.3117 8.18213 7.23915 8.14891 7.15926C8.1157 7.07937 8.09862 6.99373 8.09853 6.90721C8.09862 6.82069 8.1157 6.73496 8.14891 6.65507C8.18213 6.57518 8.23082 6.50263 8.29209 6.44154C8.35336 6.38046 8.42604 6.33208 8.50603 6.29911C8.58602 6.26615 8.67173 6.2493 8.75825 6.24948C8.84465 6.24939 8.93013 6.26634 9.00997 6.29936C9.08981 6.33238 9.16249 6.38078 9.22358 6.44188C9.28467 6.50297 9.33307 6.57556 9.3661 6.6554C9.39912 6.73524 9.41607 6.82081 9.41598 6.90721C9.41607 6.99361 9.39912 7.07917 9.3661 7.15901C9.33307 7.23885 9.28467 7.31136 9.22358 7.37245C9.16249 7.43355 9.08981 7.48203 9.00997 7.51505C8.93013 7.54807 8.84465 7.56502 8.75825 7.56493V7.56493Z" fill="white"/>
</svg>
