<svg width="22" height="25" viewBox="0 0 22 25" fill="none" xmlns="http://www.w3.org/2000/svg">
<path d="M20.9724 10.0724C20.864 9.10696 20.4166 8.21122 19.71 7.54458C19.0033 6.87794 18.0833 6.4836 17.1132 6.43158V6.1478C17.1142 5.34035 16.9554 4.54077 16.6462 3.79483C16.3371 3.04889 15.8837 2.37132 15.3118 1.80122C14.7413 1.22939 14.0633 0.775944 13.317 0.466833C12.5707 0.157723 11.7707 -0.000939665 10.9629 4.18642e-06C9.33227 0.000600941 7.76865 0.648602 6.61562 1.80163C5.46258 2.95466 4.81458 4.51841 4.81398 6.14904V6.43598C3.85681 6.504 2.95353 6.90529 2.26146 7.57C1.56939 8.23472 1.13228 9.1209 1.02574 10.0746L0 19.4186C0.00506677 20.6714 0.507104 21.871 1.39596 22.754C2.28481 23.6369 3.48802 24.131 4.74087 24.1277H17.2594C18.5123 24.131 19.7152 23.6369 20.6041 22.754C21.4929 21.871 21.9949 20.6714 22 19.4186L20.9724 10.0724ZM6.61974 6.15907C6.61959 5.58876 6.73169 5.02401 6.94983 4.49707C7.16798 3.97013 7.48797 3.49138 7.89119 3.08806C8.29441 2.68474 8.77291 2.36471 9.29979 2.14643C9.82668 1.92815 10.3915 1.81592 10.9618 1.81592C11.5322 1.81538 12.0971 1.92744 12.6241 2.14574C13.1511 2.36405 13.63 2.68416 14.033 3.08792C14.4369 3.4908 14.7572 3.96949 14.9757 4.49652C15.1942 5.02354 15.3065 5.58855 15.3061 6.15907V6.42251H6.61974V6.15907ZM7.47644 12.5468C7.33315 12.547 7.19109 12.5189 7.05867 12.4641C6.92625 12.4093 6.80599 12.3289 6.70467 12.2276C6.60334 12.1262 6.52307 12.006 6.4683 11.8736C6.41353 11.7412 6.38542 11.5992 6.38557 11.4559C6.38542 11.3126 6.41353 11.1707 6.4683 11.0383C6.52307 10.9059 6.60334 10.7855 6.70467 10.6842C6.80599 10.5828 6.92625 10.5026 7.05867 10.4478C7.19109 10.393 7.33315 10.3649 7.47644 10.3651C7.61994 10.3648 7.76209 10.3927 7.89476 10.4474C8.02744 10.5021 8.14797 10.5823 8.24959 10.6836C8.35122 10.7849 8.43198 10.9053 8.48706 11.0378C8.54215 11.1703 8.57047 11.3124 8.57062 11.4559C8.57047 11.5994 8.54215 11.7415 8.48706 11.874C8.43198 12.0065 8.35122 12.1268 8.24959 12.2281C8.14797 12.3294 8.02744 12.4097 7.89476 12.4644C7.76209 12.519 7.61994 12.5471 7.47644 12.5468V12.5468ZM14.526 12.5468C14.3825 12.5471 14.2404 12.519 14.1077 12.4644C13.9751 12.4097 13.8545 12.3294 13.7529 12.2281C13.6513 12.1268 13.5705 12.0065 13.5154 11.874C13.4603 11.7415 13.432 11.5994 13.4319 11.4559C13.432 11.3124 13.4603 11.1703 13.5154 11.0378C13.5705 10.9053 13.6513 10.7849 13.7529 10.6836C13.8545 10.5823 13.9751 10.5021 14.1077 10.4474C14.2404 10.3927 14.3825 10.3648 14.526 10.3651C14.6693 10.3649 14.8111 10.393 14.9435 10.4478C15.076 10.5026 15.1965 10.5828 15.2978 10.6842C15.3991 10.7855 15.4794 10.9059 15.5342 11.0383C15.589 11.1707 15.6171 11.3126 15.6169 11.4559C15.6171 11.5992 15.589 11.7412 15.5342 11.8736C15.4794 12.006 15.3991 12.1262 15.2978 12.2276C15.1965 12.3289 15.076 12.4093 14.9435 12.4641C14.8111 12.5189 14.6693 12.547 14.526 12.5468V12.5468Z" fill="#F83C53"/>
</svg>
