<svg width="24" height="24" viewBox="0 0 24 24" fill="none" xmlns="http://www.w3.org/2000/svg">
<path fill-rule="evenodd" clip-rule="evenodd" d="M11.9997 1.78345C8.49605 1.78345 5.65518 4.62298 5.65518 8.12704C5.65518 11.6309 8.49583 14.4715 11.9997 14.4715C15.5035 14.4715 18.3442 11.6309 18.3442 8.12704V2.78345C18.3442 2.23116 17.8964 1.78345 17.3442 1.78345H11.9997ZM8.19067 15.5873C5.04357 15.5873 2.42184 17.9968 2.15592 21.132C2.13227 21.4109 2.22659 21.6869 2.41597 21.893C2.60534 22.0992 2.87244 22.2165 3.15235 22.2165H20.8474C21.1273 22.2165 21.3944 22.0992 21.5837 21.893C21.7731 21.6869 21.8674 21.4109 21.8438 21.132C21.5779 17.9966 18.9551 15.5873 15.809 15.5873H8.19067ZM11.5451 9.27092C11.1546 8.8804 10.5215 8.8804 10.1309 9.27092C9.74041 9.66144 9.74041 10.2946 10.1309 10.6851C11.2207 11.7749 12.9875 11.7749 14.0772 10.6851C14.4678 10.2946 14.4678 9.66145 14.0772 9.27092C13.6867 8.8804 13.0535 8.8804 12.663 9.27092C12.3543 9.57961 11.8538 9.57961 11.5451 9.27092Z" fill="#F83C53"/>
</svg>
