<svg width="23" height="23" viewBox="0 0 23 23" fill="none" xmlns="http://www.w3.org/2000/svg">
<path d="M14.8107 0.00355047C15.2733 0.0781513 15.7412 0.130548 16.1984 0.230016C19.5878 0.965368 22.3197 3.84727 22.8784 7.26292C23.6488 11.9788 20.6927 16.3216 16.0179 17.334C11.6518 18.2825 7.1104 15.5898 5.84807 11.3056C4.52525 6.81354 6.82662 2.18652 11.2114 0.544409C11.9382 0.270172 12.7 0.0997488 13.4745 0.0381879C13.5326 0.0297065 13.59 0.0169428 13.6462 0L14.8107 0.00355047ZM14.2307 14.8171C15.4316 14.8196 16.6063 14.4664 17.6061 13.8022C18.6059 13.138 19.386 12.1927 19.8475 11.0858C20.309 9.97893 20.4313 8.76027 20.1989 7.58399C19.9666 6.40771 19.3899 5.32667 18.5419 4.47765C17.694 3.62862 16.6129 3.04977 15.4353 2.81431C14.2577 2.57886 13.0367 2.69739 11.9266 3.1549C10.8165 3.61242 9.86734 4.38836 9.19911 5.38456C8.53087 6.38076 8.17363 7.55245 8.17257 8.75139C8.17327 10.3568 8.81119 11.8966 9.94664 13.0335C11.0821 14.1704 12.6225 14.8117 14.2307 14.8171Z" fill="#D3D1D8"/>
<path d="M-0.000244141 20.6313C0.135996 19.9758 0.568333 19.5189 1.02792 19.0674C2.57833 17.5433 4.11603 16.0056 5.65464 14.4724C5.71771 14.3981 5.77566 14.3197 5.82811 14.2377C6.60317 15.3957 7.60004 16.3907 8.76183 17.1659C8.7383 17.1998 8.71282 17.2324 8.68553 17.2634C6.96618 18.9735 5.25318 20.6891 3.52384 22.3884C3.32428 22.5908 3.08446 22.7496 2.8197 22.8546C2.55493 22.9596 2.27104 23.0086 1.98616 22.9984C1.70127 22.9882 1.42165 22.9191 1.16517 22.7954C0.908689 22.6717 0.680979 22.4962 0.496582 22.2801C0.224101 21.9731 0.0978489 21.6065 -0.000244141 21.2227V20.6313Z" fill="#D3D1D8"/>
<path d="M14.2293 14.2383C13.1465 14.2365 12.0885 13.9137 11.1892 13.3107C10.2898 12.7078 9.58929 11.8518 9.17629 10.8508C8.76328 9.84988 8.65628 8.74897 8.8688 7.68723C9.08131 6.6255 9.60382 5.65059 10.3703 4.88573C11.1367 4.12087 12.1127 3.60039 13.1749 3.39007C14.2371 3.17975 15.3377 3.28903 16.3378 3.7041C17.3379 4.11918 18.1925 4.82141 18.7936 5.72205C19.3947 6.62269 19.7153 7.6813 19.7149 8.7641C19.7164 9.48436 19.5754 10.1978 19.3001 10.8634C19.0248 11.529 18.6207 12.1335 18.1108 12.6423C17.601 13.1511 16.9956 13.554 16.3294 13.8279C15.6633 14.1018 14.9496 14.2413 14.2293 14.2383V14.2383Z" fill="#D3D1D8"/>
</svg>
