<svg width="23" height="23" viewBox="0 0 23 23" fill="none" xmlns="http://www.w3.org/2000/svg">
<path d="M14.8106 0.00355047C15.2732 0.0781513 15.7412 0.130548 16.1984 0.230016C19.5877 0.965368 22.3197 3.84727 22.8783 7.26292C23.6487 11.9788 20.6926 16.3216 16.0178 17.334C11.6517 18.2825 7.11036 15.5898 5.84803 11.3056C4.52521 6.81354 6.82658 2.18652 11.2114 0.544409C11.9381 0.270172 12.7 0.0997488 13.4745 0.0381879C13.5326 0.0297065 13.59 0.0169428 13.6462 0L14.8106 0.00355047ZM14.2306 14.8171C15.4316 14.8196 16.6063 14.4664 17.6061 13.8022C18.6059 13.138 19.3859 12.1927 19.8475 11.0858C20.309 9.97893 20.4313 8.76027 20.1989 7.58399C19.9665 6.40771 19.3899 5.32667 18.5419 4.47765C17.694 3.62862 16.6128 3.04977 15.4352 2.81431C14.2577 2.57886 13.0366 2.69739 11.9266 3.1549C10.8165 3.61242 9.8673 4.38836 9.19906 5.38456C8.53083 6.38076 8.17359 7.55245 8.17253 8.75139C8.17322 10.3568 8.81114 11.8966 9.9466 13.0335C11.0821 14.1704 12.6225 14.8117 14.2306 14.8171Z" fill="#F83C53"/>
<path d="M-0.000244141 20.6314C0.135996 19.9759 0.568333 19.519 1.02792 19.0676C2.57833 17.5434 4.11603 16.0057 5.65464 14.4726C5.71771 14.3983 5.77566 14.3198 5.82811 14.2378C6.60317 15.3959 7.60004 16.3909 8.76183 17.166C8.7383 17.1999 8.71282 17.2325 8.68553 17.2635C6.96618 18.9737 5.25318 20.6892 3.52384 22.3885C3.32428 22.5909 3.08446 22.7497 2.8197 22.8547C2.55493 22.9598 2.27104 23.0087 1.98616 22.9985C1.70127 22.9883 1.42165 22.9192 1.16517 22.7955C0.908689 22.6718 0.680979 22.4963 0.496582 22.2802C0.224101 21.9732 0.0978489 21.6066 -0.000244141 21.2228V20.6314Z" fill="#F83C53"/>
<path d="M14.2293 14.2382C13.1465 14.2364 12.0886 13.9136 11.1892 13.3106C10.2898 12.7077 9.58934 11.8516 9.17633 10.8507C8.76333 9.84976 8.65633 8.74885 8.86884 7.68711C9.08136 6.62538 9.60386 5.65047 10.3703 4.88561C11.1368 4.12074 12.1127 3.60026 13.1749 3.38994C14.2371 3.17963 15.3378 3.28891 16.3379 3.70398C17.338 4.11906 18.1925 4.82129 18.7936 5.72193C19.3947 6.62257 19.7153 7.68118 19.7149 8.76398C19.7164 9.48424 19.5755 10.1977 19.3002 10.8633C19.0249 11.5288 18.6207 12.1334 18.1109 12.6422C17.601 13.151 16.9956 13.5539 16.3295 13.8278C15.6633 14.1017 14.9496 14.2412 14.2293 14.2382V14.2382Z" fill="#F83C53"/>
</svg>
